HIERARCHY
ROOT hips
{
	OFFSET 0.000000 29.995300 -0.000000
	CHANNELS 6 Xposition Yposition Zposition Zrotation Yrotation Xrotation 
	JOINT Chest
	{
		OFFSET 0.000000 10.123600 0.695200
		CHANNELS 3 Zrotation Yrotation Xrotation
		JOINT Chest2
		{
			OFFSET 0.000000 15.405600 0.012300
			CHANNELS 3 Zrotation Yrotation Xrotation
			JOINT Chest3
			{
				OFFSET 0.000000 11.482400 -0.009100
				CHANNELS 3 Zrotation Yrotation Xrotation
				JOINT Neck
				{
					OFFSET 0.000000 25.678300 -0.023300
					CHANNELS 3 Zrotation Yrotation Xrotation
					JOINT Head
					{
						OFFSET 0.000000 13.458800 0.864200
						CHANNELS 3 Zrotation Yrotation Xrotation
						JOINT Head_End
						{
							OFFSET 0.000000 11.713200 -0.000000
							CHANNELS 3 Zrotation Yrotation Xrotation
							End Site
							{
								OFFSET 0.005000 0.000000 0.000000
							}
						}
					}
				}
				JOINT LeftCollar
				{
					OFFSET 12.227600 21.516500 -0.711700
					CHANNELS 3 Zrotation Yrotation Xrotation
					JOINT LeftShoulder
					{
						OFFSET 10.451400 0.021300 -0.002200
						CHANNELS 3 Zrotation Yrotation Xrotation
						JOINT LeftElbow
						{
							OFFSET 26.123400 0.000000 0.000000
							CHANNELS 3 Zrotation Yrotation Xrotation
							JOINT LeftWrist
							{
								OFFSET 25.245600 0.035600 0.002400
								CHANNELS 3 Zrotation Yrotation Xrotation
								JOINT Middle_00_L
								{
									OFFSET 11.653500 0.000000 0.000000
									CHANNELS 3 Zrotation Yrotation Xrotation
									JOINT Middle_01_L
									{
										OFFSET 4.384300 0.000000 0.000000
										CHANNELS 3 Zrotation Yrotation Xrotation
										JOINT Middle_02_L
										{
											OFFSET 3.470400 -0.000300 0.000000
											CHANNELS 3 Zrotation Yrotation Xrotation
											JOINT Middle_03_L
											{
												OFFSET 2.422200 0.000300 0.000000
												CHANNELS 3 Zrotation Yrotation Xrotation
												End Site
												{
													OFFSET 0.005000 0.000000 0.000000
												}
											}
										}
									}
								}
								JOINT Index_00_L
								{
									OFFSET 11.320700 0.000000 3.214800
									CHANNELS 3 Zrotation Yrotation Xrotation
									JOINT Index_01_L
									{
										OFFSET 3.752500 0.000000 0.000000
										CHANNELS 3 Zrotation Yrotation Xrotation
										JOINT Index_02_L
										{
											OFFSET 2.704900 0.000000 0.000300
											CHANNELS 3 Zrotation Yrotation Xrotation
											JOINT Index_03_L
											{
												OFFSET 2.288400 0.000000 -0.000300
												CHANNELS 3 Zrotation Yrotation Xrotation
												End Site
												{
													OFFSET 0.005000 0.000000 0.000000
												}
											}
										}
									}
								}
								JOINT Thumb_00_L
								{
									OFFSET 2.189000 0.000000 5.112700
									CHANNELS 3 Zrotation Yrotation Xrotation
									JOINT Thumb_01_L
									{
										OFFSET 5.672300 0.000000 0.000000
										CHANNELS 3 Zrotation Yrotation Xrotation
										JOINT Thumb_02_L
										{
											OFFSET 3.353600 0.000000 0.000400
											CHANNELS 3 Zrotation Yrotation Xrotation
											JOINT Thumb_03_L
											{
												OFFSET 3.066600 0.000000 -0.000400
												CHANNELS 3 Zrotation Yrotation Xrotation
												End Site
												{
													OFFSET 0.005000 0.000000 0.000000
												}
											}
										}
									}
								}
								JOINT Ring_00_L
								{
									OFFSET 11.421100 0.000000 -3.087400
									CHANNELS 3 Zrotation Yrotation Xrotation
									JOINT Ring_01_L
									{
										OFFSET 4.107700 0.000000 0.000000
										CHANNELS 3 Zrotation Yrotation Xrotation
										JOINT Ring_02_L
										{
											OFFSET 2.971800 0.000000 0.000500
											CHANNELS 3 Zrotation Yrotation Xrotation
											JOINT Ring_03_L
											{
												OFFSET 2.159200 0.000000 -0.000500
												CHANNELS 3 Zrotation Yrotation Xrotation
												End Site
												{
													OFFSET 0.005000 0.000000 0.000000
												}
											}
										}
									}
								}
								JOINT Little_00_L
								{
									OFFSET 10.838200 0.000000 -5.836000
									CHANNELS 3 Zrotation Yrotation Xrotation
									JOINT Little_01_L
									{
										OFFSET 3.568800 0.000000 0.000000
										CHANNELS 3 Zrotation Yrotation Xrotation
										JOINT Little_02_L
										{
											OFFSET 2.336100 0.000000 0.000200
											CHANNELS 3 Zrotation Yrotation Xrotation
											JOINT Little_03_L
											{
												OFFSET 1.912900 0.000000 -0.000200
												CHANNELS 3 Zrotation Yrotation Xrotation
												End Site
												{
													OFFSET 0.005000 0.000000 0.000000
												}
											}
										}
									}
								}
							}
						}
					}
				}
				JOINT RightCollar
				{
					OFFSET -12.227600 21.516500 -0.711700
					CHANNELS 3 Zrotation Yrotation Xrotation
					JOINT RightShoulder
					{
						OFFSET -10.451300 0.021300 -0.002200
						CHANNELS 3 Zrotation Yrotation Xrotation
						JOINT RightElbow
						{
							OFFSET -26.123400 0.000000 0.000000
							CHANNELS 3 Zrotation Yrotation Xrotation
							JOINT RightWrist
							{
								OFFSET -25.245800 0.035400 0.002000
								CHANNELS 3 Zrotation Yrotation Xrotation
								JOINT Middle_00_R
								{
									OFFSET -11.654000 0.000000 0.000000
									CHANNELS 3 Zrotation Yrotation Xrotation
									JOINT Middle_01_R
									{
										OFFSET -4.408600 0.000000 0.000000
										CHANNELS 3 Zrotation Yrotation Xrotation
										JOINT Middle_02_R
										{
											OFFSET -3.470400 0.000000 0.000000
											CHANNELS 3 Zrotation Yrotation Xrotation
											JOINT Middle_03_R
											{
												OFFSET -2.422200 0.000000 0.000000
												CHANNELS 3 Zrotation Yrotation Xrotation
												End Site
												{
													OFFSET 0.005000 0.000000 0.000000
												}
											}
										}
									}
								}
								JOINT Ring_00_R
								{
									OFFSET -11.459300 0.000000 -3.067300
									CHANNELS 3 Zrotation Yrotation Xrotation
									JOINT Ring_01_R
									{
										OFFSET -4.107700 0.000000 0.000000
										CHANNELS 3 Zrotation Yrotation Xrotation
										JOINT Ring_02_R
										{
											OFFSET -2.971800 0.000000 0.000000
											CHANNELS 3 Zrotation Yrotation Xrotation
											JOINT Ring_03_R
											{
												OFFSET -2.159200 0.000000 0.000000
												CHANNELS 3 Zrotation Yrotation Xrotation
												End Site
												{
													OFFSET 0.005000 0.000000 0.000000
												}
											}
										}
									}
								}
								JOINT Little_00_R
								{
									OFFSET -10.887000 0.000000 -5.818300
									CHANNELS 3 Zrotation Yrotation Xrotation
									JOINT Little_01_R
									{
										OFFSET -3.568800 0.000000 0.000000
										CHANNELS 3 Zrotation Yrotation Xrotation
										JOINT Little_02_R
										{
											OFFSET -2.336100 0.000000 0.000000
											CHANNELS 3 Zrotation Yrotation Xrotation
											JOINT Little_03_R
											{
												OFFSET -1.912900 0.000000 0.000000
												CHANNELS 3 Zrotation Yrotation Xrotation
												End Site
												{
													OFFSET 0.005000 0.000000 0.000000
												}
											}
										}
									}
								}
								JOINT Index_00_R
								{
									OFFSET -11.333200 0.000000 3.234400
									CHANNELS 3 Zrotation Yrotation Xrotation
									JOINT Index_01_R
									{
										OFFSET -3.752500 0.000000 0.000000
										CHANNELS 3 Zrotation Yrotation Xrotation
										JOINT Index_02_R
										{
											OFFSET -2.704900 0.000000 0.000000
											CHANNELS 3 Zrotation Yrotation Xrotation
											JOINT Index_03_R
											{
												OFFSET -2.288400 0.000000 0.000000
												CHANNELS 3 Zrotation Yrotation Xrotation
												End Site
												{
													OFFSET 0.005000 0.000000 0.000000
												}
											}
										}
									}
								}
								JOINT Thumb_00_R
								{
									OFFSET -2.193600 -0.231700 5.095700
									CHANNELS 3 Zrotation Yrotation Xrotation
									JOINT Thumb_01_R
									{
										OFFSET -5.672200 0.231700 0.000000
										CHANNELS 3 Zrotation Yrotation Xrotation
										JOINT Thumb_02_R
										{
											OFFSET -3.353600 0.000000 0.000000
											CHANNELS 3 Zrotation Yrotation Xrotation
											JOINT Thumb_03_R
											{
												OFFSET -3.066500 0.000000 0.000000
												CHANNELS 3 Zrotation Yrotation Xrotation
												End Site
												{
													OFFSET 0.005000 0.000000 0.000000
												}
											}
										}
									}
								}
							}
						}
					}
				}
			}
		}
	}
	JOINT LeftHip
	{
		OFFSET 6.356900 0.000000 0.000000
		CHANNELS 3 Zrotation Yrotation Xrotation
		JOINT LeftKnee
		{
			OFFSET -0.000100 -37.930500 0.000000
			CHANNELS 3 Zrotation Yrotation Xrotation
			JOINT LeftAnkle
			{
				OFFSET -0.000100 -42.440200 -0.085400
				CHANNELS 3 Zrotation Yrotation Xrotation
				JOINT LeftToe
				{
					OFFSET 0.135400 -9.338000 13.882500
					CHANNELS 3 Zrotation Yrotation Xrotation
					End Site
					{
						OFFSET 0.005000 0.000000 0.000000
					}
				}
			}
		}
	}
	JOINT RightHip
	{
		OFFSET -6.356900 0.000000 0.000000
		CHANNELS 3 Zrotation Yrotation Xrotation
		JOINT RightKnee
		{
			OFFSET 0.000100 -37.930500 0.000000
			CHANNELS 3 Zrotation Yrotation Xrotation
			JOINT RightAnkle
			{
				OFFSET 0.000100 -42.440200 -0.085400
				CHANNELS 3 Zrotation Yrotation Xrotation
				JOINT RightToe
				{
					OFFSET -0.135400 -9.338000 13.882500
					CHANNELS 3 Zrotation Yrotation Xrotation
					End Site
					{
						OFFSET 0.005000 0.000000 0.000000
					}
				}
			}
		}
	}
}
MOTION
Frames: 4
Frame Time: 0.041667
1.935400 90.642000 6.971000 -2.957025 40.903146 16.604353 2.370601 -0.808742 -8.768089 -2.596251 -1.149778 -0.771606 -0.706991 -21.983171 -8.018277 -8.437579 3.417143 18.346267 -4.757482 32.235194 -9.536197 0.000000 0.000000 0.000000 -20.824334 33.200185 -0.049839 -34.362706 -6.308151 -69.263136 -180.000000 -58.563698 180.000000 0.080479 -0.005239 -0.988820 0.000000 0.000000 0.607176 0.005215 0.000010 -0.110703 -0.012689 0.000454 -0.146434 0.022390 -0.001199 4.934506 0.000000 0.000000 0.746397 0.000014 0.006565 0.122572 -0.000022 -0.014325 0.164521 2.447046 -0.079831 2.056764 0.000000 0.000000 0.740482 -0.000002 0.007173 -0.014980 -0.000004 -0.015017 0.027776 4.260386 -0.094452 1.375350 0.000000 0.000000 0.754839 0.000000 0.009448 0.000229 -0.000006 -0.022452 0.026332 -6.917769 0.291382 2.291170 0.000000 0.000000 0.754038 -0.000001 0.004175 -0.008146 -0.000001 -0.009275 0.012467 0.441624 -0.014543 2.538997 16.174350 2.729302 -0.044022 35.251955 10.971974 -55.691696 -180.000000 42.990097 -180.000000 -0.080308 0.004629 -0.724563 0.000000 0.000000 0.472622 0.000000 0.000000 0.008252 0.000000 0.000000 -0.001366 -7.969741 -5.107087 -8.050663 0.000000 0.000000 0.467721 0.000000 0.000000 -0.015015 0.000000 0.000000 0.025121 6.271931 -1.933901 -4.817211 0.000000 0.000000 0.481966 0.000000 0.000000 -0.004083 0.000000 0.000000 -0.000628 -1.013052 -2.505694 -6.799366 0.000000 0.000000 0.479930 0.000000 0.000000 0.003389 0.000000 0.000000 -0.007978 -3.109834 -2.403556 -3.139792 0.000035 0.004242 0.480870 0.000001 -0.004242 0.042897 0.000000 0.000000 0.013196 -4.610124 -2.491975 -2.359596 -6.749115 44.460564 -27.023668 0.000000 0.000000 9.655875 -9.727425 -14.934323 -1.969464 0.000000 0.000000 0.000000 -16.790484 42.497474 -30.425005 0.000000 0.000000 12.192131 23.554623 -78.853707 -24.616002 0.000000 0.000000 -0.000003 
1.877000 90.553600 6.913500 -4.319941 39.928672 16.324159 2.981503 -0.404413 -8.829706 -2.085474 -0.849393 -0.956413 -0.330373 -22.022002 -8.000183 -8.776740 3.606068 18.547405 -4.886829 32.115956 -9.581001 0.000000 0.000000 0.000000 -20.976642 33.494255 -0.049726 -34.268305 -6.228102 -69.786533 -180.000000 -58.448502 180.000000 0.080479 -0.005239 -0.988820 0.000000 0.000000 0.607176 0.005215 0.000010 -0.110703 -0.012689 0.000454 -0.146434 0.022390 -0.001199 4.934506 0.000000 0.000000 0.746397 0.000014 0.006565 0.122572 -0.000022 -0.014325 0.164521 2.447046 -0.079831 2.056764 0.000000 0.000000 0.740482 -0.000002 0.007173 -0.014980 -0.000004 -0.015017 0.027776 4.260386 -0.094452 1.375350 0.000000 0.000000 0.754839 0.000000 0.009448 0.000229 -0.000006 -0.022452 0.026332 -6.917769 0.291382 2.291170 0.000000 0.000000 0.754038 -0.000001 0.004175 -0.008146 -0.000001 -0.009275 0.012467 0.441624 -0.014543 2.538997 16.326197 2.849167 -0.044365 35.280685 11.338967 -55.263601 -180.000000 43.114304 -180.000000 -0.080308 0.004629 -0.724563 0.000000 0.000000 0.472622 0.000000 0.000000 0.008252 0.000000 0.000000 -0.001366 -7.969741 -5.107087 -8.050663 0.000000 0.000000 0.467721 0.000000 0.000000 -0.015015 0.000000 0.000000 0.025121 6.271931 -1.933901 -4.817211 0.000000 0.000000 0.481966 0.000000 0.000000 -0.004083 0.000000 0.000000 -0.000628 -1.013052 -2.505694 -6.799366 0.000000 0.000000 0.479930 0.000000 0.000000 0.003389 0.000000 0.000000 -0.007978 -3.109834 -2.403556 -3.139792 0.000035 0.004242 0.480870 0.000001 -0.004242 0.042897 0.000000 0.000000 0.013196 -4.610124 -2.491975 -2.359596 -6.399866 45.477997 -26.187099 0.000000 0.000000 6.754730 -9.420464 -15.002715 -0.618815 0.000000 0.000000 0.000000 -11.418855 33.464646 -26.458247 0.000000 0.000000 8.942541 12.497539 -68.084771 -13.289760 0.000000 0.000000 -0.000003 
1.755600 90.432700 6.832900 -4.845539 38.399755 16.857230 3.105913 -0.005650 -9.283834 -1.930010 -0.487997 -1.065541 -0.148557 -22.052631 -7.802829 -9.137968 3.787296 18.745506 -4.967258 32.613446 -9.964492 0.000000 0.000000 0.000000 -21.090477 33.774235 -0.050585 -34.115865 -6.279625 -70.443018 -180.000000 -58.472603 180.000000 0.080479 -0.005239 -0.988820 0.000000 0.000000 0.607176 0.005215 0.000010 -0.110703 -0.012689 0.000454 -0.146434 0.022390 -0.001199 4.934506 0.000000 0.000000 0.746397 0.000014 0.006565 0.122572 -0.000022 -0.014325 0.164521 2.447046 -0.079831 2.056764 0.000000 0.000000 0.740482 -0.000002 0.007173 -0.014980 -0.000004 -0.015017 0.027776 4.260386 -0.094452 1.375350 0.000000 0.000000 0.754839 0.000000 0.009448 0.000229 -0.000006 -0.022452 0.026332 -6.917769 0.291382 2.291170 0.000000 0.000000 0.754038 -0.000001 0.004175 -0.008146 -0.000001 -0.009275 0.012467 0.441624 -0.014543 2.538997 16.645191 2.950295 -0.044470 35.286340 11.802705 -54.737009 -180.000000 43.209900 -180.000000 -0.080308 0.004629 -0.724563 0.000000 0.000000 0.472622 0.000000 0.000000 0.008252 0.000000 0.000000 -0.001366 -7.969741 -5.107087 -8.050663 0.000000 0.000000 0.467721 0.000000 0.000000 -0.015015 0.000000 0.000000 0.025121 6.271931 -1.933901 -4.817211 0.000000 0.000000 0.481966 0.000000 0.000000 -0.004083 0.000000 0.000000 -0.000628 -1.013052 -2.505694 -6.799366 0.000000 0.000000 0.479930 0.000000 0.000000 0.003389 0.000000 0.000000 -0.007978 -3.109834 -2.403556 -3.139792 0.000035 0.004242 0.480870 0.000001 -0.004242 0.042897 0.000000 0.000000 0.013196 -4.610124 -2.491975 -2.359596 -7.249829 47.016655 -26.091216 0.000000 0.000000 4.186167 -9.850209 -15.114162 0.744535 0.000000 0.000000 0.000000 -7.668757 24.615295 -23.228636 0.000000 0.000000 4.566810 9.029929 -57.083468 -8.574227 0.000000 0.000000 -0.000003 
1.738300 90.271100 6.534400 -4.102598 36.864108 17.512864 2.536844 0.053634 -8.804737 -2.127616 -0.346267 -1.310423 -0.092213 -21.483652 -7.930697 -9.596706 4.163041 19.470346 -5.280504 32.892742 -10.776828 0.000000 0.000000 0.000000 -21.101202 33.978916 -0.051328 -33.947023 -6.423003 -71.257790 -180.000000 -58.673401 180.000000 0.080479 -0.005239 -0.988820 0.000000 0.000000 0.607176 0.005215 0.000010 -0.110703 -0.012689 0.000454 -0.146434 0.022390 -0.001199 4.934506 0.000000 0.000000 0.746397 0.000014 0.006565 0.122572 -0.000022 -0.014325 0.164521 2.447046 -0.079831 2.056764 0.000000 0.000000 0.740482 -0.000002 0.007173 -0.014980 -0.000004 -0.015017 0.027776 4.260386 -0.094452 1.375350 0.000000 0.000000 0.754839 0.000000 0.009448 0.000229 -0.000006 -0.022452 0.026332 -6.917769 0.291382 2.291170 0.000000 0.000000 0.754038 -0.000001 0.004175 -0.008146 -0.000001 -0.009275 0.012467 0.441624 -0.014543 2.538997 17.095056 3.024088 -0.044458 35.288781 12.264191 -54.136452 -180.000000 43.252197 -180.000000 -0.080308 0.004629 -0.724563 0.000000 0.000000 0.472622 0.000000 0.000000 0.008252 0.000000 0.000000 -0.001366 -7.969741 -5.107087 -8.050663 0.000000 0.000000 0.467721 0.000000 0.000000 -0.015015 0.000000 0.000000 0.025121 6.271931 -1.933901 -4.817211 0.000000 0.000000 0.481966 0.000000 0.000000 -0.004083 0.000000 0.000000 -0.000628 -1.013052 -2.505694 -6.799366 0.000000 0.000000 0.479930 0.000000 0.000000 0.003389 0.000000 0.000000 -0.007978 -3.109834 -2.403556 -3.139792 0.000035 0.004242 0.480870 0.000001 -0.004242 0.042897 0.000000 0.000000 0.013196 -4.610124 -2.491975 -2.359596 -8.645006 48.511351 -25.937912 0.000000 0.000000 2.963539 -11.491014 -15.296199 1.771823 0.000000 0.000000 0.000000 -4.930522 15.383485 -21.020981 0.000000 0.000000 2.227743 8.079804 -46.021066 -6.040615 0.000000 0.000000 -0.000003 
